# xmcd
#
# Track frame offsets:
#	150
#	19302
#	38427
#	59030
#	83182
#
# Disc length: 1413 seconds
# Revision: 0
# Processed by: cddbd v1.5.2PL0 Copyright (c) Steve Scherf et al.
# Submitted via: dBpowerAMP V12.0
#
DISCID=39058305
DTITLE=C+C Music Factory feat. Freedom Williams and Zelma Davis - Things That Make You Go Hmmmm… [The Remixes]
DYEAR=1991
DGENRE=Hip-Hop
TTITLE0=Things That Make You Go Hmmmm… [The Radio Remix 1]
TTITLE1=Things That Make You Go Hmmmm… [The Radio Remix 2]
TTITLE2=Things That Make You Go Hmmmm… [The Hot Radio Remix]
TTITLE3=Things That Make You Go Hmmmm… [The Club Remix]
TTITLE4=Things That Make You Go Hmmmm… [The Dub Remix]
EXTD=
EXTT0=
EXTT1=
EXTT2=
EXTT3=
EXTT4=
PLAYORDER=
